# xmcd
#
# Track frame offsets: 
#        150
#        11717
#        21687
#        34349
#        45639
#        57542
#        69246
#        82417
#        93314
#        103698
#        113856
#        124886
#        136870
#        147467
#        157493
#
# Disc length: 2245 seconds
#
# Revision: 0
# Processed by: cddbd v1.5.2PL0 Copyright (c) Steve Scherf et al.
# Submitted via: ExactAudioCopy v0.95b4
#
DISCID=e608c30f
DTITLE=John Lee Hooker - Hooker Boogies (TheIntroCollection D2)
DYEAR=1900
DGENRE=Blues
TTITLE0=Boom Boom
TTITLE1=Dimples
TTITLE2=Mambo Chillun
TTITLE3=This Is Hip
TTITLE4=Little Wheel
TTITLE5=I Love You Honey
TTITLE6=I'm Going Upstairs
TTITLE7=Send Me Your Pillow
TTITLE8=Big Legs, Tight Skirt
TTITLE9=Want Ad Blues
TTITLE10=Bottle Up and Go
TTITLE11=Mama You Got A Daughter
TTITLE12=Dusty Road
TTITLE13=She's Mine (Keep Your Hands To Yourself)
TTITLE14=I Want To Shout
EXTD=
EXTT0=
EXTT1=
EXTT2=
EXTT3=
EXTT4=
EXTT5=
EXTT6=
EXTT7=
EXTT8=
EXTT9=
EXTT10=
EXTT11=
EXTT12=
EXTT13=
EXTT14=
PLAYORDER=
